HIERARCHY
ROOT Hips
{
    OFFSET   0.000000   0.000000   0.000000
    CHANNELS 6 Xposition Yposition Zposition Zrotation Xrotation Yrotation
    JOINT Chest
    {
        OFFSET   0.000000   8.007230   0.000000
        CHANNELS 3 Zrotation Xrotation Yrotation
        JOINT Chest2
        {
            OFFSET   0.000000  22.077100   0.000000
            CHANNELS 3 Zrotation Xrotation Yrotation
            JOINT Neck
            {
                OFFSET   0.000000  23.255100   0.000000
                CHANNELS 3 Zrotation Xrotation Yrotation
                JOINT Head
                {
                    OFFSET   0.000000  14.370100   1.956600
                    CHANNELS 3 Zrotation Xrotation Yrotation
                    End Site
                    {
                        OFFSET   0.000000  19.566000   0.000000
                    }
                }
            }
            JOINT LeftCollar
            {
                OFFSET   3.911900  19.017000  -0.467063
                CHANNELS 3 Zrotation Xrotation Yrotation
                JOINT LeftShoulder
                {
                    OFFSET  10.383700   0.000000   0.000000
                    CHANNELS 3 Zrotation Xrotation Yrotation
                    JOINT LeftElbow
                    {
                        OFFSET  26.662100   0.001193   0.000980
                        CHANNELS 3 Zrotation Xrotation Yrotation
                        JOINT LeftWrist
                        {
                            OFFSET  28.869000  -0.000059  -0.000082
                            CHANNELS 3 Zrotation Xrotation Yrotation
                            JOINT LeftFinger0
                            {
                                OFFSET   2.044650  -2.323450   3.252850
                                CHANNELS 3 Zrotation Xrotation Yrotation
                                JOINT LeftFinger01
                                {
                                    OFFSET   3.088130   0.000000   0.000000
                                    CHANNELS 3 Zrotation Xrotation Yrotation
                                    JOINT LeftFinger02
                                    {
                                        OFFSET   2.639460   0.000000   0.000000
                                        CHANNELS 3 Zrotation Xrotation Yrotation
                                        End Site
                                        {
                                            OFFSET   2.582190   0.000000   0.000000
                                        }
                                    }
                                }
                            }
                            JOINT LeftFinger1
                            {
                                OFFSET   8.364480   0.000000   3.252850
                                CHANNELS 3 Zrotation Xrotation Yrotation
                                JOINT LeftFinger11
                                {
                                    OFFSET   4.646930   0.000000   0.000000
                                    CHANNELS 3 Zrotation Xrotation Yrotation
                                    JOINT LeftFinger12
                                    {
                                        OFFSET   2.323470   0.000000   0.000000
                                        CHANNELS 3 Zrotation Xrotation Yrotation
                                        End Site
                                        {
                                            OFFSET   2.273050   0.000000   0.000000
                                        }
                                    }
                                }
                            }
                            JOINT LeftFinger2
                            {
                                OFFSET   8.364490   0.000016   1.078090
                                CHANNELS 3 Zrotation Xrotation Yrotation
                                JOINT LeftFinger21
                                {
                                    OFFSET   5.111610   0.000000   0.000000
                                    CHANNELS 3 Zrotation Xrotation Yrotation
                                    JOINT LeftFinger22
                                    {
                                        OFFSET   2.788150   0.000016   0.000000
                                        CHANNELS 3 Zrotation Xrotation Yrotation
                                        End Site
                                        {
                                            OFFSET   2.727660   0.000000   0.000000
                                        }
                                    }
                                }
                            }
                            JOINT LeftFinger3
                            {
                                OFFSET   7.899780   0.000015  -1.078090
                                CHANNELS 3 Zrotation Xrotation Yrotation
                                JOINT LeftFinger31
                                {
                                    OFFSET   4.646930   0.000000   0.000000
                                    CHANNELS 3 Zrotation Xrotation Yrotation
                                    JOINT LeftFinger32
                                    {
                                        OFFSET   2.323470   0.000000   0.000000
                                        CHANNELS 3 Zrotation Xrotation Yrotation
                                        End Site
                                        {
                                            OFFSET   2.273050   0.000000   0.000000
                                        }
                                    }
                                }
                            }
                            JOINT LeftFinger4
                            {
                                OFFSET   7.435090   0.000000  -3.252850
                                CHANNELS 3 Zrotation Xrotation Yrotation
                                JOINT LeftFinger41
                                {
                                    OFFSET   3.717550   0.000000   0.000000
                                    CHANNELS 3 Zrotation Xrotation Yrotation
                                    JOINT LeftFinger42
                                    {
                                        OFFSET   1.858770   0.000000   0.000000
                                        CHANNELS 3 Zrotation Xrotation Yrotation
                                        End Site
                                        {
                                            OFFSET   1.818440   0.000000   0.000000
                                        }
                                    }
                                }
                            }
                        }
                    }
                }
            }
            JOINT RightCollar
            {
                OFFSET  -3.911910  19.017000  -0.467062
                CHANNELS 3 Zrotation Xrotation Yrotation
                JOINT RightShoulder
                {
                    OFFSET -10.383700   0.000014   0.000000
                    CHANNELS 3 Zrotation Xrotation Yrotation
                    JOINT RightElbow
                    {
                        OFFSET -26.662100   0.001225   0.001091
                        CHANNELS 3 Zrotation Xrotation Yrotation
                        JOINT RightWrist
                        {
                            OFFSET -28.869000  -0.000020  -0.000085
                            CHANNELS 3 Zrotation Xrotation Yrotation
                            JOINT RightFinger0
                            {
                                OFFSET  -2.044650  -2.323490   3.252850
                                CHANNELS 3 Zrotation Xrotation Yrotation
                                JOINT RightFinger01
                                {
                                    OFFSET  -3.088130   0.000000   0.000000
                                    CHANNELS 3 Zrotation Xrotation Yrotation
                                    JOINT RightFinger02
                                    {
                                        OFFSET  -2.639460   0.000000   0.000000
                                        CHANNELS 3 Zrotation Xrotation Yrotation
                                        End Site
                                        {
                                            OFFSET  -2.582190   0.000000   0.000000
                                        }
                                    }
                                }
                            }
                            JOINT RightFinger1
                            {
                                OFFSET  -8.364480   0.000000   3.252850
                                CHANNELS 3 Zrotation Xrotation Yrotation
                                JOINT RightFinger11
                                {
                                    OFFSET  -4.646930   0.000000   0.000000
                                    CHANNELS 3 Zrotation Xrotation Yrotation
                                    JOINT RightFinger12
                                    {
                                        OFFSET  -2.323470   0.000000   0.000000
                                        CHANNELS 3 Zrotation Xrotation Yrotation
                                        End Site
                                        {
                                            OFFSET  -2.273050   0.000000   0.000000
                                        }
                                    }
                                }
                            }
                            JOINT RightFinger2
                            {
                                OFFSET  -8.364480   0.000000   1.078090
                                CHANNELS 3 Zrotation Xrotation Yrotation
                                JOINT RightFinger21
                                {
                                    OFFSET  -5.111620   0.000000   0.000000
                                    CHANNELS 3 Zrotation Xrotation Yrotation
                                    JOINT RightFinger22
                                    {
                                        OFFSET  -2.788160   0.000000   0.000000
                                        CHANNELS 3 Zrotation Xrotation Yrotation
                                        End Site
                                        {
                                            OFFSET  -2.727660   0.000000   0.000000
                                        }
                                    }
                                }
                            }
                            JOINT RightFinger3
                            {
                                OFFSET  -7.899780   0.000000  -1.078090
                                CHANNELS 3 Zrotation Xrotation Yrotation
                                JOINT RightFinger31
                                {
                                    OFFSET  -4.646930   0.000000   0.000000
                                    CHANNELS 3 Zrotation Xrotation Yrotation
                                    JOINT RightFinger32
                                    {
                                        OFFSET  -2.323470   0.000000   0.000000
                                        CHANNELS 3 Zrotation Xrotation Yrotation
                                        End Site
                                        {
                                            OFFSET  -2.273050   0.000000   0.000000
                                        }
                                    }
                                }
                            }
                            JOINT RightFinger4
                            {
                                OFFSET  -7.435090   0.000000  -3.252850
                                CHANNELS 3 Zrotation Xrotation Yrotation
                                JOINT RightFinger41
                                {
                                    OFFSET  -3.717550   0.000000   0.000000
                                    CHANNELS 3 Zrotation Xrotation Yrotation
                                    JOINT RightFinger42
                                    {
                                        OFFSET  -1.858760   0.000000   0.000000
                                        CHANNELS 3 Zrotation Xrotation Yrotation
                                        End Site
                                        {
                                            OFFSET  -1.818440   0.000000   0.000000
                                        }
                                    }
                                }
                            }
                        }
                    }
                }
            }
        }
    }
    JOINT LeftHip
    {
        OFFSET   9.783030   0.000000   0.000000
        CHANNELS 3 Zrotation Xrotation Yrotation
        JOINT LeftKnee
        {
            OFFSET   0.000063 -41.789100   0.000608
            CHANNELS 3 Zrotation Xrotation Yrotation
            JOINT LeftAnkle
            {
                OFFSET   0.000048 -41.133200  -0.000184
                CHANNELS 3 Zrotation Xrotation Yrotation
                JOINT LeftToe
                {
                    OFFSET   0.000000  -6.358960  14.674500
                    CHANNELS 3 Zrotation Xrotation Yrotation
                    End Site
                    {
                        OFFSET   0.000000   0.000000   3.913200
                    }
                }
            }
        }
    }
    JOINT RightHip
    {
        OFFSET  -9.783030   0.000000   0.000000
        CHANNELS 3 Zrotation Xrotation Yrotation
        JOINT RightKnee
        {
            OFFSET   0.000071 -41.789100   0.001239
            CHANNELS 3 Zrotation Xrotation Yrotation
            JOINT RightAnkle
            {
                OFFSET   0.000037 -41.133200  -0.000166
                CHANNELS 3 Zrotation Xrotation Yrotation
                JOINT RightToe
                {
                    OFFSET   0.000000  -6.358960  14.674500
                    CHANNELS 3 Zrotation Xrotation Yrotation
                    End Site
                    {
                        OFFSET   0.000000   0.000000   3.913200
                    }
                }
            }
        }
    }
}
MOTION
Frames: 4
Frame Time:   0.016667
 -0.794545  89.935500   0.775588  -0.835461 -12.753500  -3.243100  -0.083849  10.947500   0.500148  -0.274938  21.893900   1.046520   2.222310   2.060450  -0.080005   3.663130   4.159280   7.215560   0.793828   0.399201   3.724400 -53.387400   9.199710 -61.843100  13.172400 -23.956100 -100.068000  18.534100  56.423800  -0.562710  59.040400  54.333300 -108.293000 -21.189000   0.029660   0.011737  -5.594500   0.014759   0.000905 -49.671900  10.296300  -8.519940 -41.284000  -0.013237   0.038963 -30.885600  -0.026964   0.026811 -40.983800  -3.543120   4.035780 -55.641700  -0.029595  -0.027954 -38.182200   0.000000  -0.029484 -34.319200  -5.258380   7.611510 -52.067400  -0.038314  -0.018173 -34.676800  -0.015573  -0.023522 -47.865700 -12.269600  10.897300 -73.546400  -0.032864  -0.033863 -48.981900   0.000000  -0.031185   1.427180  -1.902090   4.766360  51.512000  12.280100  60.766800 -17.994400 -27.640400  90.711700 -22.977000  76.641500   6.650040 -57.603400  53.700800 106.513000 -10.745400   0.023033   0.004202 -10.372700   0.011213   0.001114  46.676200  10.246500   9.423830  38.882900   0.012246  -0.032852  28.594700  -0.002549  -0.031031  31.009800  -1.944530  -3.206710  49.834900   0.009445  -0.002913  33.190000   0.002731  -0.000801  31.583100  -5.050630  -8.145090  49.401700   0.002770   0.000608  32.901500   0.000290  -0.000890  46.815800  -7.015880  -6.534180  70.826000   0.000821  -0.002115  47.170100  -0.002369  -0.003589  -1.187450  14.213600   3.429430   0.507686   3.854060   5.363880  -4.318210  -6.971130   3.628370  -0.000000   0.000000   0.000000   2.675880  13.950100 -11.347500  -0.307692   4.864010  -0.934725 -11.803000  -2.275690   3.094180   0.000000   0.000000   0.000000
 -0.800785  89.948200   0.772607  -0.821307 -12.753700  -3.216100  -0.093604  10.950000   0.531153  -0.301639  21.898800   1.112360   2.224350   2.090720  -0.080271   3.666790   4.219610   7.120460   0.813220   0.257697   3.553860 -52.669000   9.376770 -62.161100  13.430600 -24.423900 -98.830000  17.617000  57.048200   0.407757  59.040400  54.333300 -108.293000 -18.899800   0.029013   0.010160  -4.449890   0.014431   0.000946 -47.022500  10.675700  -9.821730 -39.237200  -0.012946   0.038719 -28.953100  -0.026675   0.026763 -37.523000  -3.510660   4.548040 -54.428400  -0.029553  -0.027927 -36.674300   0.000000  -0.029043 -32.474700  -5.183510   8.052720 -49.038800  -0.037515  -0.017743 -32.659800  -0.015294  -0.022985 -45.651100 -12.348600  11.931800 -70.345200  -0.032569  -0.031800 -46.849900  -0.000792  -0.030512   1.408970  -2.011850   4.768800  50.865000  12.251500  61.113000 -17.708900 -27.889600  89.584000 -23.258800  76.329200   7.031280 -58.810700  54.233700 108.012000 -14.413000   0.009012   0.001827 -12.206500   0.003540   0.001098  43.929400  10.429300  10.660600  36.746200   0.012033  -0.032580  26.730700  -0.001469  -0.030733  29.583900  -1.751230  -3.080120  46.537500   0.006605  -0.002542  30.993900   0.002703  -0.000462  30.485000  -4.997900  -8.416240  47.251900   0.002638   0.000620  31.469800   0.000527  -0.000869  45.746500  -7.037240  -6.813550  69.249500   0.001047  -0.002048  46.120200  -0.002387  -0.003641  -1.215570  14.196800   3.443030   0.516772   3.920550   5.347800  -4.318120  -6.994980   3.616920  -0.000000   0.000000   0.000000   2.680440  13.964700 -11.348300  -0.322245   4.883930  -0.949124 -11.806500  -2.285650   3.074440  -0.000000   0.000000   0.000000
 -0.804240  89.963100   0.769625  -0.805472 -12.753100  -3.181920  -0.107771  10.956600   0.569222  -0.338425  21.911700   1.193660   2.238310   2.095040  -0.080309   3.691120   4.229010   7.020920   0.823701   0.122907   3.382070 -52.180200   9.473530 -62.321600  13.623600 -24.670700 -98.151100  16.090700  57.689300   2.006310  59.040400  54.333300 -108.293000 -16.002800   0.024482   0.007137  -3.001390   0.012220   0.000992 -43.199800  11.012800 -11.539100 -36.268300  -0.010906   0.037007 -26.269500  -0.024648   0.026431 -34.205500  -3.490610   5.094910 -52.275400  -0.029256  -0.027740 -34.677000   0.000000  -0.025956 -30.440500  -5.066050   8.536790 -45.621900  -0.031922  -0.014731 -30.384200  -0.013342  -0.019225 -42.872100 -12.321100  12.909000 -66.416500  -0.030506  -0.024369 -44.233400  -0.001585  -0.025800   1.395910  -2.081360   4.771140  50.338900  12.215500  61.274400 -17.427200 -27.887500  88.447500 -23.740900  76.091100   7.670000 -59.349900  54.461500 108.676000 -16.341000  -0.002640  -0.000548 -13.170500  -0.001291   0.001069  39.554800  10.478000  12.511500  33.312000   0.010539  -0.030677  23.773900  -0.000508  -0.028645  28.369200  -1.624550  -3.014390  40.975900   0.002564  -0.002183  27.289900   0.002673  -0.000226  29.111100  -4.961320  -8.833880  43.649600   0.002484   0.000629  29.070700   0.000771  -0.000849  44.093300  -7.074660  -7.253870  66.813800   0.001278  -0.001964  44.498000  -0.002406  -0.003693  -1.242610  14.153500   3.456220   0.526730   3.992670   5.328900  -4.318370  -7.017880   3.604020  -0.000000   0.000000   0.000000   2.682490  13.967200 -11.348500  -0.336548   4.901320  -0.964749 -11.808300  -2.290400   3.050700  -0.000000   0.000000   0.000000
 -0.803802  89.980000   0.770099  -0.782656 -12.714900  -3.138140  -0.131406  10.970100   0.619673  -0.398047  21.938100   1.303290   2.287200   1.999480  -0.078584   3.773280   4.035810   6.922260   0.811140   0.071056   3.254580 -52.096200   9.444980 -62.254500  13.764200 -24.686600 -98.220400  14.689700  58.120800   3.457250  59.040400  54.333300 -108.293000 -14.122700   0.008918   0.002930  -2.061320   0.005083   0.001037 -40.306400  11.113600 -12.834400 -34.006500  -0.003898   0.016077 -24.161100  -0.010124   0.011898 -32.487600  -3.536420   5.538780 -49.730200  -0.012750  -0.011887 -32.980800   0.000000  -0.009949 -28.868600  -4.953980   8.895970 -43.234200  -0.011150  -0.004549 -28.794000  -0.005083  -0.006307 -41.216000 -12.020400  13.311800 -63.945600  -0.013000  -0.004954 -42.587700  -0.002461  -0.008102   1.394750  -2.068140   4.770330  50.313500  12.086200  61.037000 -17.365800 -27.875400  88.714500 -23.981500  76.014800   8.043300 -59.252700  54.419700 108.559000 -16.294800  -0.002551  -0.000498 -13.147400  -0.001280   0.001037  35.725100  10.247300  13.845200  30.259200   0.004627  -0.016252  21.266400   0.000039  -0.014283  28.123500  -1.718840  -3.203040  35.216400   0.000598  -0.001863  23.454100   0.002643  -0.000026  28.409500  -4.997170  -9.147840  39.989100   0.002318   0.000654  26.632800   0.001018  -0.000849  42.827500  -7.118370  -7.618260  64.953200   0.001526  -0.001875  43.258800  -0.002426  -0.003737  -1.266610  14.086500   3.451220   0.533871   4.048940   5.314840  -4.319600  -7.036400   3.593950   0.000000   0.000000   0.000000   2.677060  13.933000 -11.360500  -0.342676   4.912590  -0.981110 -11.807800  -2.293810   3.037170  -0.000000   0.000000   0.000000
